# xmcd
#
# Track frame offsets:
#	182
#	16837
#	29345
#	42587
#	55397
#	68292
#	81530
#	94272
#	106085
#	118270
#	133607
#	146805
#	159227
#	172325
#	187625
#	199985
#	212917
#	226335
#	239400
#	252535
#	268035
#	281027
#	295472
#	308475
#	320222
#
# Disc length: 4464 seconds
#
# Revision: 0
# Processed by: cddbd v1.4PL0 Copyright (c) Steve Scherf et al.
# Submitted via: audiograbber 1.81.03
#
DISCID=7f116e19
DTITLE=Various Artist - Good Morning Blues [CD 4] - Worried Life Blues
DYEAR=1995
DGENRE=Blues
TTITLE0=Albert Ammons - Boogie Woogie Stomp
TTITLE1=Cripple Clarence Lofton - I Don't Know
TTITLE2=Washboard Sam - Diggin' My Potatoes
TTITLE3=Big Bill Broonzy - Just A Dream, No.2
TTITLE4=Jimmy Yancey - Yancey Stomp
TTITLE5=Ida Cox - Hard Times Blues
TTITLE6=Tommy McClennan - Bottle It Up And Go
TTITLE7=Sonny Terry - Harmonica And Washboard Breakdown
TTITLE8=Jazz Gillum - Key To The Highway
TTITLE9=Lil Green - Romance In The Dark
TTITLE10=Leadbelly - Good Morning Blues
TTITLE11=Memphis Minnie - Nothin' In Ramblin'
TTITLE12=Brownie McGhee - Born For Bad Luck
TTITLE13=Memphis Slim - Beer Drinking Woman
TTITLE14=Champion Jack Dupree - Junker Blues
TTITLE15=Robert Petway - Catfish Blues
TTITLE16=Tony Hollins - Crawlin' King Snake
TTITLE17=Big Maceo - Worried Life Blues
TTITLE18=Robert Lockwood - Take A Little Walk With Me
TTITLE19=Muddy Waters - Country Blues
TTITLE20=Doctor Clayton - Gotta Find My Baby
TTITLE21=St. Louis Jimmy - Goin' Down Slow
TTITLE22=Little Son Joe - Black Rat Swing
TTITLE23=Arthur Big Boy Crudup - Mean Old Frisco
TTITLE24=T-Bone Walker - I Got Break, Baby
EXTD=
EXTT0=
EXTT1=
EXTT2=
EXTT3=
EXTT4=
EXTT5=
EXTT6=
EXTT7=
EXTT8=
EXTT9=
EXTT10=
EXTT11=
EXTT12=
EXTT13=
EXTT14=
EXTT15=
EXTT16=
EXTT17=
EXTT18=
EXTT19=
EXTT20=
EXTT21=
EXTT22=
EXTT23=
EXTT24=
PLAYORDER=
